HIERARCHY
ROOT root
{
	OFFSET 0.000000 0.000000 0.000000
	CHANNELS 6 Xposition Yposition Zposition Zrotation Yrotation Xrotation
	JOINT lhip
	{
		OFFSET 0.058581 -0.082280 -0.017664
		CHANNELS 3 Zrotation Yrotation Xrotation
		JOINT lknee
		{
			OFFSET 0.043451 -0.386469 0.008037
			CHANNELS 3 Zrotation Yrotation Xrotation
			JOINT lankle
			{
				OFFSET -0.014790 -0.426874 -0.037428
				CHANNELS 3 Zrotation Yrotation Xrotation
				JOINT ltoe
				{
					OFFSET 0.041054 -0.060286 0.122042
					CHANNELS 3 Zrotation Yrotation Xrotation
					End Site
					{
						OFFSET 0.000000 0.000000 0.000000
					}
				}
			}
		}
	}
	JOINT rhip
	{
		OFFSET -0.060310 -0.090513 -0.013543
		CHANNELS 3 Zrotation Yrotation Xrotation
		JOINT rknee
		{
			OFFSET -0.043257 -0.383688 -0.004843
			CHANNELS 3 Zrotation Yrotation Xrotation
			JOINT rankle
			{
				OFFSET 0.019056 -0.420046 -0.034562
				CHANNELS 3 Zrotation Yrotation Xrotation
				JOINT rtoe
				{
					OFFSET -0.034840 -0.062106 0.130323
					CHANNELS 3 Zrotation Yrotation Xrotation
					End Site
					{
						OFFSET 0.000000 0.000000 0.000000
					}
				}
			}
		}
	}
	JOINT lowerback
	{
		OFFSET 0.004439 0.124404 -0.038385
		CHANNELS 3 Zrotation Yrotation Xrotation
		JOINT upperback
		{
			OFFSET 0.004488 0.137956 0.026820
			CHANNELS 3 Zrotation Yrotation Xrotation
			JOINT chest
			{
				OFFSET -0.002265 0.056032 0.002855
				CHANNELS 3 Zrotation Yrotation Xrotation
				JOINT lowerneck
				{
					OFFSET -0.013390 0.211636 -0.033468
					CHANNELS 3 Zrotation Yrotation Xrotation
					JOINT upperneck
					{
						OFFSET 0.010113 0.088937 0.050410
						CHANNELS 3 Zrotation Yrotation Xrotation
						End Site
						{
							OFFSET 0.000000 0.000000 0.000000
						}
					}
				}
				JOINT lclavicle
				{
					OFFSET 0.071702 0.114000 -0.018898
					CHANNELS 3 Zrotation Yrotation Xrotation
					JOINT lshoulder
					{
						OFFSET 0.122921 0.045205 -0.019046
						CHANNELS 3 Zrotation Yrotation Xrotation
						JOINT lelbow
						{
							OFFSET 0.255332 -0.015649 -0.022946
							CHANNELS 3 Zrotation Yrotation Xrotation
							JOINT lwrist
							{
								OFFSET 0.265709 0.012698 -0.007375
								CHANNELS 3 Zrotation Yrotation Xrotation
								End Site
								{
									OFFSET 0.000000 0.000000 0.000000
								}
							}
						}
					}
				}
				JOINT rclavicle
				{
					OFFSET -0.082954 0.112472 -0.023707
					CHANNELS 3 Zrotation Yrotation Xrotation
					JOINT rshoulder
					{
						OFFSET -0.113228 0.046853 -0.008472
						CHANNELS 3 Zrotation Yrotation Xrotation
						JOINT relbow
						{
							OFFSET -0.260127 -0.014369 -0.031269
							CHANNELS 3 Zrotation Yrotation Xrotation
							JOINT rwrist
							{
								OFFSET -0.269108 0.006794 -0.006027
								CHANNELS 3 Zrotation Yrotation Xrotation
								End Site
								{
									OFFSET 0.000000 0.000000 0.000000
								}
							}
						}
					}
				}
			}
		}
	}
}
MOTION
Frames: 11
Frame Time: 0.033333
-0.123140 -1.895693 0.975472 171.399888 -1.532384 86.174174 6.024680 -0.319839 -8.335843 -4.729634 -9.589529 9.197662 -3.463390 4.932153 -9.439558 0.000000 -0.000000 0.000000 1.108348 1.294096 -0.477368 -0.210211 5.755785 18.630430 -2.509683 -4.635881 -26.691296 0.000000 -0.000000 0.000000 1.784499 -0.194650 19.447298 2.136906 -1.906219 7.840775 2.065367 -1.171041 0.507713 -4.109729 6.635574 -1.427430 0.339517 3.268351 -4.101692 -24.421706 3.167424 5.866816 -52.464331 5.169734 11.080751 5.342777 -49.830474 16.180618 -16.979561 -11.756188 -26.990707 18.493459 1.389265 7.994532 48.572631 -3.243782 11.024519 -7.613234 42.827303 13.150638 19.920014 6.925873 -11.520377 
-0.122739 -1.894679 0.975841 171.452947 -1.438346 85.808888 6.020343 -0.534603 -7.905635 -4.649748 -9.680533 9.148247 -3.632835 5.162051 -9.483865 0.000000 -0.000000 0.000000 1.129170 1.061720 -0.051654 -0.092263 5.955217 18.310152 -2.587444 -4.684859 -26.504462 0.000000 -0.000000 0.000000 1.967985 0.027067 19.653180 2.273399 -1.807062 7.754902 2.183220 -1.215962 0.661445 -4.221467 7.281546 -1.610394 -0.917565 4.168558 -3.218754 -25.250800 3.542498 5.219486 -51.871515 5.133636 11.143950 4.464407 -48.959544 15.860356 -17.045796 -11.722815 -25.214717 19.672904 1.002118 7.723961 47.047706 -3.994178 11.019147 -7.924521 42.443015 11.724861 18.819053 6.776375 -9.074638 
-0.122929 -1.893469 0.975962 171.548571 -1.366815 85.745562 6.004961 -0.735400 -7.754393 -4.632318 -9.829014 9.200612 -3.602761 5.390493 -9.562374 0.000000 -0.000000 0.000000 1.128100 0.972205 0.138627 0.072581 6.304449 18.159389 -2.440707 -4.896153 -26.266173 0.000000 -0.000000 0.000000 2.070942 0.109821 19.535207 2.254801 -1.682107 7.536277 2.173033 -1.274943 0.996957 -4.304994 7.880252 -1.890014 -1.940907 5.231851 -2.390194 -25.621434 3.953174 4.809672 -51.543580 5.172196 11.164786 3.894907 -48.397974 16.090562 -16.925072 -11.632728 -24.592280 19.976441 0.587276 7.445923 46.713418 -4.301200 11.423806 -7.842345 42.126074 11.615330 18.440349 6.652349 -8.340760 
-0.123477 -1.891745 0.976022 171.793020 -1.229774 85.640884 5.995455 -1.042570 -7.639317 -4.587854 -9.948094 9.415655 -3.657811 5.525879 -9.742682 0.000000 -0.000000 0.000000 1.212885 0.962539 0.644689 0.075132 6.290147 17.643096 -2.268802 -4.985929 -26.207530 0.000000 -0.000000 0.000000 2.098680 0.153850 19.427526 2.125454 -1.590122 7.246639 2.119949 -1.209779 1.373725 -4.079687 8.450459 -2.064791 -2.803209 6.270871 -1.700288 -25.694739 4.199565 4.457672 -51.428196 5.217777 11.275821 3.813397 -47.560589 15.886071 -17.858063 -11.681725 -23.952574 20.023166 0.186712 6.925737 46.433651 -4.748476 12.089740 -6.769166 41.622206 12.675643 20.547855 6.435273 -8.700961 
-0.123572 -1.890287 0.975875 171.768622 -1.169069 85.552108 6.046506 -1.090099 -7.478941 -4.641237 -9.963893 9.507048 -3.693414 5.596048 -9.871529 0.000000 -0.000000 0.000000 1.283930 1.022951 0.988822 -0.002402 6.317820 17.326045 -2.283261 -4.964276 -26.206863 0.000000 -0.000000 0.000000 1.959366 0.324078 19.255108 2.015568 -1.485645 7.372104 2.113834 -1.078077 1.386000 -3.865638 8.547340 -1.922229 -2.818440 6.549722 -1.832168 -25.513303 4.036494 4.457082 -51.454641 5.356783 11.430591 3.728805 -46.993337 15.695463 -18.633342 -11.721871 -23.763404 19.880660 0.194208 6.802755 46.310904 -5.178499 12.468969 -5.635215 41.392052 13.858683 22.605602 6.345175 -9.424760 
-0.123987 -1.888154 0.975725 171.747487 -1.139713 85.530702 6.047843 -1.140574 -7.461119 -4.748405 -9.953205 9.774301 -3.671618 5.640674 -10.081461 0.000000 -0.000000 0.000000 1.234356 0.992548 1.298234 -0.028365 6.289106 16.958020 -2.224777 -4.845391 -26.239120 0.000000 -0.000000 0.000000 1.777938 0.578425 19.053529 1.839227 -1.418346 7.536773 2.060574 -1.010686 1.247294 -3.741296 8.474086 -1.953592 -2.299575 6.452577 -2.272976 -25.161773 3.684388 4.544902 -51.383033 5.881094 11.802567 3.071882 -46.033757 15.790646 -20.021722 -12.202264 -24.025549 19.547901 0.402434 6.916430 46.148767 -5.852224 12.914787 -3.877296 41.234720 15.817835 25.583487 6.304545 -10.420063 
-0.125614 -1.886067 0.975300 172.168450 -0.992710 85.671609 6.011239 -1.575177 -7.879034 -4.786149 -9.941112 10.278038 -3.684664 5.654322 -10.241890 0.000000 -0.000000 0.000000 1.099131 0.726001 1.480488 0.127145 6.115581 16.434491 -2.119910 -4.655198 -26.257966 0.000000 -0.000000 0.000000 1.980119 0.584690 18.947683 1.640720 -1.601992 7.386675 1.815797 -1.087863 1.222347 -3.618385 8.235090 -2.448811 -1.572676 5.967936 -2.639556 -24.785856 3.450119 4.708901 -51.215710 6.519117 12.213019 1.884162 -44.393828 15.695113 -22.211574 -13.309032 -25.013652 19.274606 0.373988 6.892861 45.814233 -6.414025 13.288336 -2.230110 40.963083 17.376085 28.334134 6.340731 -10.944259 
-0.126808 -1.883094 0.975169 172.114124 -0.939644 85.829160 6.023424 -1.735802 -7.925008 -4.880252 -9.763905 10.361086 -3.614396 5.672363 -10.399851 0.000000 -0.000000 0.000000 0.843843 0.673347 1.686055 0.338943 6.340595 16.004528 -2.006657 -4.215407 -26.209337 0.000000 -0.000000 0.000000 1.886000 0.775703 18.663270 1.448201 -1.669043 7.468148 1.559980 -1.133685 1.155519 -3.332689 7.871655 -2.707823 -0.879962 5.351495 -3.463021 -24.606324 3.753378 5.043740 -50.950178 7.575397 12.396428 0.977656 -42.695853 15.192999 -24.116281 -14.419368 -27.136241 19.188720 0.017399 6.823610 45.537818 -6.845633 13.480562 -1.040191 40.648625 17.995899 29.809401 6.438480 -11.729069 
-0.128307 -1.879714 0.975274 171.784495 -0.810051 86.032069 6.176559 -1.702492 -7.826475 -5.041088 -9.703772 10.258740 -3.535817 5.790567 -10.647538 0.000000 -0.000000 0.000000 0.601680 0.825761 1.839311 0.762642 7.152646 15.710540 -1.797160 -3.783349 -26.106992 0.000000 -0.000000 0.000000 1.777395 0.904653 18.261847 1.266825 -1.634825 7.601787 1.305840 -1.142471 1.159714 -2.995113 7.126566 -2.726335 -0.246145 4.643841 -4.510274 -24.730414 4.662095 5.360095 -50.713912 8.877804 12.230080 0.522566 -41.223437 14.544386 -25.157906 -14.822290 -28.580049 19.230129 -0.590542 6.750336 45.096043 -7.259661 13.490381 -0.057737 40.587097 18.056361 29.973636 6.631397 -12.570292 
-0.130573 -1.875414 0.975285 171.016961 -0.571757 86.187401 6.497131 -1.400952 -7.633668 -5.408388 -9.949600 10.367846 -3.535679 6.209443 -11.222082 0.000000 -0.000000 0.000000 0.330963 1.306242 2.192136 1.458720 8.345560 15.339183 -1.298250 -2.976063 -26.646141 0.000000 -0.000000 0.000000 1.600943 1.058833 17.972467 1.050543 -1.372031 7.665873 1.054723 -1.060978 1.339305 -2.517258 5.601368 -2.799187 0.694032 2.864621 -5.752264 -25.105160 6.084994 5.423490 -50.361683 10.404218 11.896356 0.170270 -39.916998 14.812709 -24.782498 -13.833739 -26.781853 19.438131 -1.360027 6.591135 44.452915 -7.885909 13.180118 0.988691 40.646572 17.862164 28.364843 6.991114 -13.200231 
-0.132584 -1.872559 0.974935 170.241511 -0.415083 86.185193 6.678962 -1.079166 -7.616396 -5.715798 -9.993699 10.975833 -3.502093 6.490230 -11.882221 0.000000 -0.000000 0.000000 0.183514 1.629507 2.134799 1.918036 9.114952 15.838947 -0.853383 -2.358359 -27.955007 0.000000 -0.000000 0.000000 1.354222 1.338215 17.980291 0.955007 -1.063947 7.789276 0.864820 -1.013567 1.543920 -1.914663 4.239688 -3.077228 1.503106 0.631080 -6.532286 -25.424232 6.954788 5.389411 -50.038753 11.346047 11.781592 -0.048170 -39.714444 16.851724 -23.799481 -12.507445 -22.860381 19.758346 -1.689029 6.402011 44.065210 -8.411441 12.669293 1.656897 40.730176 17.869955 26.460644 7.121790 -13.382619 
